<svg xmlns="http://www.w3.org/2000/svg" viewBox="0 0 468.24 69.8"><defs><style>.cls-1{fill:#64b367;}.cls-2{font-size:58.8px;fill:#fff;font-family:Comfortaa-Bold, Comfortaa;}.cls-3,.cls-4{font-weight:700;}.cls-4{fill:#222;font-size:24px;}.cls-5{fill:#65b668;font-family:Comfortaa-Regular, Comfortaa;letter-spacing:0em;}</style></defs><title>softcrumapi_small_transparent</title><g id="Capa_2" data-name="Capa 2"><g id="Layer_1" data-name="Layer 1"><path class="cls-1" d="M71.43,42.2l-.78-3.37-5-21.55a7.07,7.07,0,0,0-3.45-4.22L38.54,2A7.46,7.46,0,0,0,33,2L9.4,13.06a7.07,7.07,0,0,0-3.46,4.22L.8,39.29.12,42.2a6.91,6.91,0,0,0,1.23,5.27l1.93,2.35L17.69,67.45a7.31,7.31,0,0,0,5,2.35H48.87a7.31,7.31,0,0,0,5-2.35L68.24,49.87l2-2.4A6.92,6.92,0,0,0,71.43,42.2ZM33.72,61.13a5.54,5.54,0,0,0,.49,2.3h-9.1A6,6,0,0,1,21,61.52L9.12,46.93a5.57,5.57,0,0,0,.76-2.81,5.67,5.67,0,0,0-1.12-3.36L19.13,30.37a5.93,5.93,0,0,0,3.31,1,5.83,5.83,0,0,0,1.52-.2l12.1,25.38A5.71,5.71,0,0,0,33.72,61.13Zm16.78.39a6,6,0,0,1-4.07,1.91H45a5.56,5.56,0,0,0,.49-2.3,5.71,5.71,0,0,0-2.87-4.93L48.42,40a5,5,0,0,0,.94.08,5.94,5.94,0,0,0,4.46-2l8.7,5a5.79,5.79,0,0,0-.08,1,5.61,5.61,0,0,0,.46,2.23ZM63.23,41.25l-8.36-4.85a5.35,5.35,0,0,0,.39-2,5.9,5.9,0,0,0-11.79,0,5.73,5.73,0,0,0,3,5l-5.75,16.1a5.8,5.8,0,0,0-1.11-.11,6.18,6.18,0,0,0-1.73.25L25.82,30.33h0a5.67,5.67,0,0,0,2.52-4.71,5.9,5.9,0,0,0-11.79,0A5.62,5.62,0,0,0,17.65,29L7.3,39.36l-.21.22.07-.3L11.5,20.7a5.77,5.77,0,0,1,2.81-3.44l19.21-9a6.07,6.07,0,0,1,4.51,0l19.21,9A5.77,5.77,0,0,1,60,20.7l4.46,19A5.87,5.87,0,0,0,63.23,41.25Z"/><text class="cls-2" transform="translate(86.89 52.36)"><tspan class="cls-3">softcrum</tspan><tspan class="cls-4" x="275.95" y="0"> </tspan><tspan class="cls-5" x="282.98" y="0">api</tspan></text></g></g></svg>